<svg xmlns="http://www.w3.org/2000/svg" width="256" height="256" viewBox="0 0 256 256" role="img" aria-label="GPT-Lab">
  <!-- Simple badge-style mark (not an official reproduction). -->
  <defs>
    <linearGradient id="gold" x1="0" y1="0" x2="1" y2="1">
      <stop offset="0%" stop-color="#F6D365"/>
      <stop offset="100%" stop-color="#C79A2F"/>
    </linearGradient>
  </defs>
  <circle cx="128" cy="128" r="118" fill="#5B2C83"/>
  <circle cx="128" cy="128" r="102" fill="none" stroke="#FFFFFF" stroke-opacity="0.9" stroke-width="10"/>
  <path
    d="M128 62c18 0 33 10 40 25 6-4 13-6 21-6 19 0 34 15 34 34 0 10-4 19-11 25 7 10 11 22 11 35 0 33-27 60-60 60-18 0-34-8-45-20-9 12-24 20-40 20-28 0-50-22-50-50 0-18 9-34 23-43-3-8-5-17-5-26 0-38 31-69 69-69 8 0 16 1 23 4z"
    fill="url(#gold)"
    opacity="0.95"
  />
  <text
    x="128"
    y="200"
    text-anchor="middle"
    font-family="ui-sans-serif, system-ui, -apple-system, Segoe UI, Roboto, Helvetica, Arial"
    font-size="26"
    font-weight="800"
    fill="#FFFFFF"
    letter-spacing="3"
  >
    GPT-LAB
  </text>
</svg>
